<svg xmlns="http://www.w3.org/2000/svg" version="1.1" xmlns:xlink="http://www.w3.org/1999/xlink" xmlns:svgjs="http://svgjs.dev/svgjs" width="2000" height="1500" viewBox="0 0 2000 1500"><rect width="2000" height="1500" fill="#0f172a"></rect><g transform="matrix(0.75,0,0,0.75,249.090909090909,486.728385208395)"><svg viewBox="0 0 396 139" data-background-color="#0f172a" preserveAspectRatio="xMidYMid meet" height="702" width="2000" xmlns="http://www.w3.org/2000/svg" xmlns:xlink="http://www.w3.org/1999/xlink"><g id="tight-bounds" transform="matrix(1,0,0,1,0.24000000000003752,0.005706469198656805)"><svg viewBox="0 0 395.5199999999999 138.98858706160271" height="138.98858706160271" width="395.5199999999999"><g><svg viewBox="0 0 695.5786338366793 244.43135999999998" height="138.98858706160271" width="395.5199999999999"><g transform="matrix(1,0,0,1,0,4.3992271698113115)"><svg viewBox="0 0 395.52 235.63290566037736" height="235.63290566037736" width="395.52"><g id="textblocktransform"><svg viewBox="0 0 395.52 235.63290566037736" height="235.63290566037736" width="395.52" id="textblock"><g><svg viewBox="0 0 395.52 235.63290566037736" height="235.63290566037736" width="395.52"><g transform="matrix(1,0,0,1,0,0)"><svg width="395.52" viewBox="1.81 -30.35 51.75 30.84" height="235.63290566037736" data-palette-color="#ffffff"><path d="M3.15-29.69Q3.66-29.69 4.21-29.14 4.76-28.59 4.96-27.81L4.96-27.81Q5.98-21.75 10.57-5.96L10.57-5.96Q10.79-6.47 12.87-10.72L12.87-10.72 17.02-19.29Q17.43-20.07 18.58-22.44L18.58-22.44Q20.41-26.2 21.64-28.27 22.88-30.35 23.85-30.35L23.85-30.35Q24.07-30.35 24.35-30.08 24.63-29.81 24.83-29.27 25.02-28.74 25.02-27.98L25.02-27.98Q25.02-27.17 24.49-25.93L24.49-25.93Q22.22-21.95 17.72-13.15 13.23-4.35 12.13-1.73L12.13-1.73Q11.74-0.95 11.5-0.62 11.25-0.29 10.73-0.09 10.21 0.12 9.23 0.12L9.23 0.12Q8.89 0.12 7.02-6.02 5.15-12.16 3.48-18.74 1.81-25.32 1.81-27.08L1.81-27.08Q1.81-28.15 2.05-28.92 2.29-29.69 3.15-29.69L3.15-29.69ZM49.7-6.49L49.95-20.41Q49.61-19.97 49.14-18.55L49.14-18.55Q49.07-18.38 48.83-17.7 48.58-17.02 48.29-16.58L48.29-16.58 47.41-14.94 46.07-12.48Q44.63-9.79 43.7-8.25 42.77-6.71 41.78-5.65 40.79-4.59 39.89-4.61L39.89-4.61Q39.06-4.61 37.72-7.09 36.37-9.57 34.91-12.77L34.91-12.77 32-19.07Q31.96-18.51 31.96-17.07L31.96-17.07Q31.96-15.55 32.1-11.6L32.1-11.6Q32.25-7.35 32.25-5.42L32.25-5.42Q32.44-4.17 32.52-3.88 32.59-3.59 32.59-3.56L32.59-3.56Q32.59 0.12 31 0.12L31 0.12Q30.15 0.12 29.72-0.27 29.29-0.66 29.17-1.29 29.05-1.93 29.05-2.91L29.05-2.91Q29.05-3.47 29.15-4.54L29.15-4.54Q29.17-4.81 29.2-5.16 29.22-5.52 29.22-5.93L29.22-5.93Q29.29-9.45 29.29-12.38L29.29-12.38Q29.39-19.65 29.55-22.95 29.71-26.25 30.26-27.98 30.81-29.71 32-29.71L32-29.71Q32.69-29.71 33.15-28.89 33.62-28.08 33.62-27.15L33.62-27.15 33.62-26.9Q33.91-24.63 36.3-19.07L36.3-19.07Q37.16-17.11 38.69-13.94 40.23-10.77 40.72-10.18L40.72-10.18Q41.09-10.18 41.5-10.62 41.92-11.06 42.67-12.28L42.67-12.28Q43.31-13.35 47.02-21.31L47.02-21.31Q49.27-26.15 49.75-27.15L49.75-27.15Q49.92-28.03 50.49-28.77 51.05-29.52 51.56-29.52L51.56-29.52Q52.51-29.52 53.04-28.76 53.56-28 53.56-26.71L53.56-26.71Q53.56-24.46 53.34-21.07L53.34-21.07Q53.2-18.48 53.15-16.99L53.15-16.99 52.73-1.46Q52.73-0.83 52.45-0.39 52.17 0.05 51.84 0.27 51.51 0.49 51.32 0.49L51.32 0.49Q51.12 0.49 50.53 0.23 49.95-0.02 49.42-0.65 48.9-1.27 48.9-2.29L48.9-2.29Q48.9-2.86 49.01-3.39 49.12-3.93 49.34-4.66L49.34-4.66Q49.36-4.81 49.53-5.4 49.7-5.98 49.7-6.49L49.7-6.49Z" opacity="1" transform="matrix(1,0,0,1,0,0)" fill="#ffffff" class="wordmark-text-0" data-fill-palette-color="primary" id="text-0"></path></svg></g></svg></g></svg></g></svg></g><g transform="matrix(1,0,0,1,451.14727383667923,0)"><svg viewBox="0 0 244.43135999999998 244.43135999999998" height="244.43135999999998" width="244.43135999999998"><g><svg xmlns="http://www.w3.org/2000/svg" xmlns:xlink="http://www.w3.org/1999/xlink" version="1.1" x="0" y="0" viewBox="0.5000000000000002 0.5 71 71" enable-background="new 0 0 72 72" xml:space="preserve" height="244.43135999999998" width="244.43135999999998" class="icon-icon-0" data-fill-palette-color="accent" id="icon-0"><g fill="#ffffff" data-fill-palette-color="accent"><g fill="#ffffff" data-fill-palette-color="accent"><g fill="#ffffff" data-fill-palette-color="accent"><path d="M48.4 38.1c-0.7 0-1.4-0.3-1.9-0.9-0.9-1-0.7-2.6 0.2-3.5l3.1-3.1c0.3-0.3 0.3-0.7 0-1l-3.1-3.1c-0.9-0.9-1.1-2.4-0.3-3.4 1-1.2 2.7-1.2 3.7-0.2l5.5 5.5c0.5 0.5 0.7 1.1 0.7 1.8 0 0.7-0.3 1.3-0.7 1.8l-5.5 5.5C49.6 37.9 49 38.1 48.4 38.1z" fill="#ffffff" data-fill-palette-color="accent"></path></g><g fill="#ffffff" data-fill-palette-color="accent"><path d="M23.6 38.1c-0.6 0-1.3-0.2-1.8-0.7L16.4 32c-0.5-0.5-0.7-1.1-0.7-1.8 0-0.7 0.3-1.3 0.7-1.8l5.4-5.4c0.9-0.9 2.4-1.1 3.4-0.3 1.2 1 1.2 2.7 0.2 3.7l-3.2 3.2c-0.3 0.3-0.3 0.7 0 1l3.1 3.1c0.9 0.9 1.1 2.5 0.2 3.5C25 37.8 24.3 38.1 23.6 38.1z" fill="#ffffff" data-fill-palette-color="accent"></path></g></g><g fill="#ffffff" data-fill-palette-color="accent"><path d="M32.7 41.9c-0.3 0-0.6 0-0.8-0.1-1.3-0.5-2-1.9-1.5-3.2l6.6-18.4c0.5-1.3 1.9-2 3.2-1.5 1.3 0.5 2 1.9 1.5 3.2l-6.6 18.4C34.7 41.2 33.7 41.9 32.7 41.9z" fill="#ffffff" data-fill-palette-color="accent"></path></g><g fill="#ffffff" data-fill-palette-color="accent"><path d="M69.8 0.5H2.2c-0.9 0-1.7 0.8-1.7 1.7v67.6c0 0.9 0.8 1.7 1.7 1.7h67.6c0.9 0 1.7-0.8 1.7-1.7V2.2C71.5 1.3 70.7 0.5 69.8 0.5zM25 4.5c1.2 0 2.1 0.9 2.1 2.1 0 1.2-0.9 2.1-2.1 2.1-1.2 0-2.1-0.9-2.1-2.1C22.9 5.4 23.8 4.5 25 4.5zM16.1 4.5c1.2 0 2.1 0.9 2.1 2.1 0 1.2-0.9 2.1-2.1 2.1C15 8.7 14 7.8 14 6.6 14 5.4 15 4.5 16.1 4.5zM7.3 4.5c1.2 0 2.1 0.9 2.1 2.1 0 1.2-0.9 2.1-2.1 2.1S5.2 7.8 5.2 6.6C5.2 5.4 6.1 4.5 7.3 4.5zM5.5 64.8V16.5c0-0.9 0.8-1.7 1.7-1.7h57.6c0.9 0 1.7 0.8 1.7 1.7V46c-0.1 0-0.1-0.1-0.2-0.1-0.4-0.1-0.6-0.5-0.6-0.8v-3.5c0-0.5-0.4-0.9-0.9-0.9H59c-0.5 0-0.9 0.4-0.9 0.9v3.5c0 0.4-0.3 0.7-0.6 0.8-0.8 0.2-1.5 0.6-2.2 0.9-0.3 0.2-0.8 0.1-1-0.1L52 44.5c-0.6-0.6-1.1-0.6-1.5-0.2l-4.1 4.1c-0.4 0.4-0.4 0.9 0 1.3l2.4 2.4c0.3 0.3 0.3 0.7 0.2 1-0.4 0.7-0.7 1.5-0.9 2.2C48 55.7 47.6 56 47.2 56l-3.5 0c-0.5 0-0.9 0.4-0.9 0.9v5.8c0 0.5 0.4 0.9 0.9 0.9h3.5c0.4 0 0.7 0.3 0.8 0.6 0.1 0.4 0.3 0.9 0.5 1.3 0.2 0.5-0.2 1.1-0.7 1.1H7.2C6.3 66.5 5.5 65.7 5.5 64.8zM64.8 66.5h-8.4c-0.3 0-0.6-0.1-0.8-0.3-1.9-1.9-3-4.7-2.6-7.7 0.5-3.9 3.7-7.1 7.6-7.7 2.2-0.3 4.3 0.1 6 1.2v12.8C66.5 65.7 65.7 66.5 64.8 66.5z" fill="#ffffff" data-fill-palette-color="accent"></path></g></g></svg></g></svg></g></svg></g><defs></defs></svg><rect width="395.5199999999999" height="138.98858706160271" fill="none" stroke="none" visibility="hidden"></rect></g></svg></g></svg>